<mxfile host="app.diagrams.net" modified="2021-04-25T05:30:56.165Z" agent="5.0 (Macintosh; Intel Mac OS X 10_15_7) AppleWebKit/537.36 (KHTML, like Gecko) Chrome/90.0.4430.85 Safari/537.36" etag="y0KaEni9NARJBmW4hOib" version="14.6.6" type="github">
  <diagram id="C5RBs43oDa-KdzZeNtuy" name="Page-1">
    <mxGraphModel dx="946" dy="526" grid="1" gridSize="10" guides="1" tooltips="1" connect="1" arrows="1" fold="1" page="1" pageScale="1" pageWidth="827" pageHeight="1169" math="0" shadow="0">
      <root>
        <mxCell id="WIyWlLk6GJQsqaUBKTNV-0" />
        <mxCell id="WIyWlLk6GJQsqaUBKTNV-1" parent="WIyWlLk6GJQsqaUBKTNV-0" />
        <mxCell id="k_o9BzKEIPWBxL8dlrQQ-0" value="Database" style="shape=umlActor;verticalLabelPosition=bottom;verticalAlign=top;html=1;outlineConnect=0;" vertex="1" parent="WIyWlLk6GJQsqaUBKTNV-1">
          <mxGeometry x="930" y="233.0000000000001" width="30" height="60" as="geometry" />
        </mxCell>
        <mxCell id="k_o9BzKEIPWBxL8dlrQQ-1" style="edgeStyle=orthogonalEdgeStyle;rounded=0;orthogonalLoop=1;jettySize=auto;html=1;exitX=0.359;exitY=0.985;exitDx=0;exitDy=0;entryX=1.003;entryY=0.394;entryDx=0;entryDy=0;entryPerimeter=0;startArrow=none;startFill=0;endArrow=none;endFill=0;exitPerimeter=0;" edge="1" parent="WIyWlLk6GJQsqaUBKTNV-1" source="k_o9BzKEIPWBxL8dlrQQ-34" target="k_o9BzKEIPWBxL8dlrQQ-25">
          <mxGeometry relative="1" as="geometry">
            <Array as="points">
              <mxPoint x="400" y="397" />
            </Array>
          </mxGeometry>
        </mxCell>
        <mxCell id="k_o9BzKEIPWBxL8dlrQQ-2" style="edgeStyle=orthogonalEdgeStyle;rounded=0;orthogonalLoop=1;jettySize=auto;html=1;exitX=0.5;exitY=1;exitDx=0;exitDy=0;exitPerimeter=0;" edge="1" parent="WIyWlLk6GJQsqaUBKTNV-1">
          <mxGeometry relative="1" as="geometry">
            <mxPoint x="215" y="300" as="sourcePoint" />
            <mxPoint x="215" y="300" as="targetPoint" />
          </mxGeometry>
        </mxCell>
        <mxCell id="k_o9BzKEIPWBxL8dlrQQ-3" style="edgeStyle=orthogonalEdgeStyle;rounded=0;orthogonalLoop=1;jettySize=auto;html=1;exitX=0.5;exitY=1;exitDx=0;exitDy=0;exitPerimeter=0;" edge="1" parent="WIyWlLk6GJQsqaUBKTNV-1">
          <mxGeometry relative="1" as="geometry">
            <mxPoint x="215" y="300" as="sourcePoint" />
            <mxPoint x="215" y="300" as="targetPoint" />
          </mxGeometry>
        </mxCell>
        <mxCell id="k_o9BzKEIPWBxL8dlrQQ-4" style="edgeStyle=orthogonalEdgeStyle;rounded=0;orthogonalLoop=1;jettySize=auto;html=1;exitX=0;exitY=0.5;exitDx=0;exitDy=0;startArrow=none;startFill=0;endArrow=none;endFill=0;" edge="1" parent="WIyWlLk6GJQsqaUBKTNV-1" source="k_o9BzKEIPWBxL8dlrQQ-25">
          <mxGeometry relative="1" as="geometry">
            <mxPoint x="80" y="343.0000000000001" as="targetPoint" />
            <Array as="points">
              <mxPoint x="120" y="403.0000000000001" />
              <mxPoint x="120" y="343.0000000000001" />
            </Array>
          </mxGeometry>
        </mxCell>
        <object label="Manager" id="k_o9BzKEIPWBxL8dlrQQ-5">
          <mxCell style="shape=umlActor;verticalLabelPosition=bottom;verticalAlign=top;html=1;outlineConnect=0;" vertex="1" parent="WIyWlLk6GJQsqaUBKTNV-1">
            <mxGeometry x="40" y="303.0000000000001" width="30" height="60" as="geometry" />
          </mxCell>
        </object>
        <mxCell id="k_o9BzKEIPWBxL8dlrQQ-8" value="conveys-requests ▶" style="text;html=1;strokeColor=none;fillColor=none;align=center;verticalAlign=middle;whiteSpace=wrap;rounded=0;rotation=0;" vertex="1" parent="WIyWlLk6GJQsqaUBKTNV-1">
          <mxGeometry x="451" y="307.0000000000001" width="130" height="20" as="geometry" />
        </mxCell>
        <mxCell id="k_o9BzKEIPWBxL8dlrQQ-9" value="◀ prepares" style="text;html=1;strokeColor=none;fillColor=none;align=center;verticalAlign=middle;whiteSpace=wrap;rounded=0;" vertex="1" parent="WIyWlLk6GJQsqaUBKTNV-1">
          <mxGeometry x="385" y="420.0000000000001" width="66" height="20" as="geometry" />
        </mxCell>
        <mxCell id="k_o9BzKEIPWBxL8dlrQQ-11" value="conveys-requests ▶" style="text;html=1;strokeColor=none;fillColor=none;align=center;verticalAlign=middle;whiteSpace=wrap;rounded=0;rotation=0;" vertex="1" parent="WIyWlLk6GJQsqaUBKTNV-1">
          <mxGeometry x="544" y="253.0000000000001" width="130" height="20" as="geometry" />
        </mxCell>
        <mxCell id="k_o9BzKEIPWBxL8dlrQQ-12" value="◀ posts" style="text;html=1;strokeColor=none;fillColor=none;align=center;verticalAlign=middle;whiteSpace=wrap;rounded=0;" vertex="1" parent="WIyWlLk6GJQsqaUBKTNV-1">
          <mxGeometry x="315" y="375.0000000000001" width="66" height="20" as="geometry" />
        </mxCell>
        <mxCell id="k_o9BzKEIPWBxL8dlrQQ-24" value="" style="group" vertex="1" connectable="0" parent="WIyWlLk6GJQsqaUBKTNV-1">
          <mxGeometry x="150" y="353.0000000000001" width="150" height="80" as="geometry" />
        </mxCell>
        <mxCell id="k_o9BzKEIPWBxL8dlrQQ-25" value="&amp;lt;&amp;lt;boundary&amp;gt;&amp;gt;&lt;br&gt;Interface Page" style="rounded=0;whiteSpace=wrap;html=1;" vertex="1" parent="k_o9BzKEIPWBxL8dlrQQ-24">
          <mxGeometry x="10" y="20" width="140" height="60" as="geometry" />
        </mxCell>
        <mxCell id="k_o9BzKEIPWBxL8dlrQQ-26" value="" style="group" vertex="1" connectable="0" parent="k_o9BzKEIPWBxL8dlrQQ-24">
          <mxGeometry width="30" height="40" as="geometry" />
        </mxCell>
        <mxCell id="k_o9BzKEIPWBxL8dlrQQ-27" value="" style="whiteSpace=wrap;html=1;shape=mxgraph.basic.document" vertex="1" parent="k_o9BzKEIPWBxL8dlrQQ-26">
          <mxGeometry width="30" height="40" as="geometry" />
        </mxCell>
        <mxCell id="k_o9BzKEIPWBxL8dlrQQ-28" value="" style="endArrow=none;html=1;" edge="1" parent="k_o9BzKEIPWBxL8dlrQQ-26">
          <mxGeometry width="50" height="50" relative="1" as="geometry">
            <mxPoint x="5" y="9" as="sourcePoint" />
            <mxPoint x="25" y="9" as="targetPoint" />
          </mxGeometry>
        </mxCell>
        <mxCell id="k_o9BzKEIPWBxL8dlrQQ-29" value="" style="endArrow=none;html=1;" edge="1" parent="k_o9BzKEIPWBxL8dlrQQ-26">
          <mxGeometry width="50" height="50" relative="1" as="geometry">
            <mxPoint x="5" y="15" as="sourcePoint" />
            <mxPoint x="25" y="15" as="targetPoint" />
          </mxGeometry>
        </mxCell>
        <mxCell id="k_o9BzKEIPWBxL8dlrQQ-30" value="" style="endArrow=none;html=1;" edge="1" parent="k_o9BzKEIPWBxL8dlrQQ-26">
          <mxGeometry width="50" height="50" relative="1" as="geometry">
            <mxPoint x="5" y="21" as="sourcePoint" />
            <mxPoint x="25" y="21" as="targetPoint" />
          </mxGeometry>
        </mxCell>
        <mxCell id="k_o9BzKEIPWBxL8dlrQQ-31" value="" style="endArrow=none;html=1;" edge="1" parent="k_o9BzKEIPWBxL8dlrQQ-26">
          <mxGeometry width="50" height="50" relative="1" as="geometry">
            <mxPoint x="5" y="27" as="sourcePoint" />
            <mxPoint x="25" y="27" as="targetPoint" />
          </mxGeometry>
        </mxCell>
        <mxCell id="k_o9BzKEIPWBxL8dlrQQ-32" value="" style="endArrow=none;html=1;" edge="1" parent="k_o9BzKEIPWBxL8dlrQQ-26">
          <mxGeometry width="50" height="50" relative="1" as="geometry">
            <mxPoint x="5" y="33" as="sourcePoint" />
            <mxPoint x="25" y="33" as="targetPoint" />
          </mxGeometry>
        </mxCell>
        <mxCell id="k_o9BzKEIPWBxL8dlrQQ-33" value="" style="group" vertex="1" connectable="0" parent="WIyWlLk6GJQsqaUBKTNV-1">
          <mxGeometry x="335" y="160.0000000000001" width="155" height="73" as="geometry" />
        </mxCell>
        <mxCell id="k_o9BzKEIPWBxL8dlrQQ-34" value="&amp;lt;&amp;lt;control&amp;gt;&amp;gt;&lt;br&gt;Controller" style="rounded=0;whiteSpace=wrap;html=1;" vertex="1" parent="k_o9BzKEIPWBxL8dlrQQ-33">
          <mxGeometry x="15" y="13" width="140" height="60" as="geometry" />
        </mxCell>
        <mxCell id="k_o9BzKEIPWBxL8dlrQQ-35" value="" style="verticalLabelPosition=bottom;verticalAlign=top;html=1;shape=mxgraph.basic.smiley" vertex="1" parent="k_o9BzKEIPWBxL8dlrQQ-33">
          <mxGeometry width="30" height="30" as="geometry" />
        </mxCell>
        <mxCell id="k_o9BzKEIPWBxL8dlrQQ-36" style="edgeStyle=orthogonalEdgeStyle;rounded=0;orthogonalLoop=1;jettySize=auto;html=1;exitX=1;exitY=0.5;exitDx=0;exitDy=0;entryX=0;entryY=0.5;entryDx=0;entryDy=0;endArrow=none;endFill=0;" edge="1" parent="WIyWlLk6GJQsqaUBKTNV-1" source="k_o9BzKEIPWBxL8dlrQQ-34" target="k_o9BzKEIPWBxL8dlrQQ-45">
          <mxGeometry relative="1" as="geometry">
            <Array as="points">
              <mxPoint x="540" y="203.0000000000001" />
              <mxPoint x="540" y="275.0000000000001" />
            </Array>
          </mxGeometry>
        </mxCell>
        <mxCell id="k_o9BzKEIPWBxL8dlrQQ-37" style="edgeStyle=orthogonalEdgeStyle;rounded=0;orthogonalLoop=1;jettySize=auto;html=1;exitX=0.75;exitY=1;exitDx=0;exitDy=0;entryX=0.376;entryY=0;entryDx=0;entryDy=0;entryPerimeter=0;endArrow=none;endFill=0;" edge="1" parent="WIyWlLk6GJQsqaUBKTNV-1" source="k_o9BzKEIPWBxL8dlrQQ-34" target="k_o9BzKEIPWBxL8dlrQQ-41">
          <mxGeometry relative="1" as="geometry" />
        </mxCell>
        <mxCell id="k_o9BzKEIPWBxL8dlrQQ-38" value="◀ provides data" style="text;html=1;strokeColor=none;fillColor=none;align=center;verticalAlign=middle;whiteSpace=wrap;rounded=0;rotation=0;" vertex="1" parent="WIyWlLk6GJQsqaUBKTNV-1">
          <mxGeometry x="651" y="420.0000000000001" width="130" height="20" as="geometry" />
        </mxCell>
        <mxCell id="k_o9BzKEIPWBxL8dlrQQ-39" value="" style="group" vertex="1" connectable="0" parent="WIyWlLk6GJQsqaUBKTNV-1">
          <mxGeometry x="510" y="375.0000000000001" width="155" height="115" as="geometry" />
        </mxCell>
        <mxCell id="k_o9BzKEIPWBxL8dlrQQ-40" value="" style="group" vertex="1" connectable="0" parent="k_o9BzKEIPWBxL8dlrQQ-39">
          <mxGeometry width="155" height="75" as="geometry" />
        </mxCell>
        <mxCell id="k_o9BzKEIPWBxL8dlrQQ-41" value="&amp;lt;&amp;lt;entity&amp;gt;&amp;gt;&lt;br&gt;Page Maker" style="rounded=0;whiteSpace=wrap;html=1;" vertex="1" parent="k_o9BzKEIPWBxL8dlrQQ-40">
          <mxGeometry x="15" y="15" width="140" height="60" as="geometry" />
        </mxCell>
        <mxCell id="k_o9BzKEIPWBxL8dlrQQ-42" value="" style="verticalLabelPosition=bottom;verticalAlign=top;html=1;shape=mxgraph.basic.smiley" vertex="1" parent="k_o9BzKEIPWBxL8dlrQQ-40">
          <mxGeometry width="30" height="30" as="geometry" />
        </mxCell>
        <mxCell id="k_o9BzKEIPWBxL8dlrQQ-44" value="" style="group" vertex="1" connectable="0" parent="WIyWlLk6GJQsqaUBKTNV-1">
          <mxGeometry x="700" y="231.0000000000001" width="155" height="76" as="geometry" />
        </mxCell>
        <mxCell id="k_o9BzKEIPWBxL8dlrQQ-45" value="&amp;lt;&amp;lt;boundary&amp;gt;&amp;gt;&lt;br&gt;Database Connection" style="rounded=0;whiteSpace=wrap;html=1;" vertex="1" parent="k_o9BzKEIPWBxL8dlrQQ-44">
          <mxGeometry x="15" y="16" width="140" height="60" as="geometry" />
        </mxCell>
        <mxCell id="k_o9BzKEIPWBxL8dlrQQ-46" value="" style="verticalLabelPosition=bottom;verticalAlign=top;html=1;shape=mxgraph.basic.smiley" vertex="1" parent="k_o9BzKEIPWBxL8dlrQQ-44">
          <mxGeometry width="30" height="30" as="geometry" />
        </mxCell>
        <mxCell id="k_o9BzKEIPWBxL8dlrQQ-47" style="edgeStyle=orthogonalEdgeStyle;rounded=0;orthogonalLoop=1;jettySize=auto;html=1;exitX=1;exitY=0.75;exitDx=0;exitDy=0;endArrow=none;endFill=0;" edge="1" parent="WIyWlLk6GJQsqaUBKTNV-1" source="k_o9BzKEIPWBxL8dlrQQ-25">
          <mxGeometry relative="1" as="geometry">
            <mxPoint x="525" y="418.0000000000001" as="targetPoint" />
            <Array as="points">
              <mxPoint x="525" y="418.0000000000001" />
            </Array>
          </mxGeometry>
        </mxCell>
        <mxCell id="k_o9BzKEIPWBxL8dlrQQ-48" style="edgeStyle=orthogonalEdgeStyle;rounded=0;orthogonalLoop=1;jettySize=auto;html=1;exitX=0.5;exitY=1;exitDx=0;exitDy=0;entryX=1;entryY=0.5;entryDx=0;entryDy=0;endArrow=none;endFill=0;" edge="1" parent="WIyWlLk6GJQsqaUBKTNV-1" source="k_o9BzKEIPWBxL8dlrQQ-45" target="k_o9BzKEIPWBxL8dlrQQ-41">
          <mxGeometry relative="1" as="geometry" />
        </mxCell>
        <mxCell id="k_o9BzKEIPWBxL8dlrQQ-49" style="edgeStyle=orthogonalEdgeStyle;rounded=0;orthogonalLoop=1;jettySize=auto;html=1;exitX=1;exitY=0.5;exitDx=0;exitDy=0;endArrow=none;endFill=0;" edge="1" parent="WIyWlLk6GJQsqaUBKTNV-1" source="k_o9BzKEIPWBxL8dlrQQ-45">
          <mxGeometry relative="1" as="geometry">
            <mxPoint x="920" y="275" as="targetPoint" />
            <Array as="points">
              <mxPoint x="855" y="275" />
            </Array>
          </mxGeometry>
        </mxCell>
        <mxCell id="k_o9BzKEIPWBxL8dlrQQ-50" value="" style="group" vertex="1" connectable="0" parent="WIyWlLk6GJQsqaUBKTNV-1">
          <mxGeometry x="580" y="40.000000000000114" width="155" height="76" as="geometry" />
        </mxCell>
        <mxCell id="k_o9BzKEIPWBxL8dlrQQ-51" value="&amp;lt;&amp;lt;entity&amp;gt;&amp;gt;&lt;br&gt;Archiver" style="rounded=0;whiteSpace=wrap;html=1;" vertex="1" parent="k_o9BzKEIPWBxL8dlrQQ-50">
          <mxGeometry x="15" y="16" width="140" height="60" as="geometry" />
        </mxCell>
        <mxCell id="k_o9BzKEIPWBxL8dlrQQ-52" value="" style="verticalLabelPosition=bottom;verticalAlign=top;html=1;shape=mxgraph.basic.smiley" vertex="1" parent="k_o9BzKEIPWBxL8dlrQQ-50">
          <mxGeometry width="30" height="30" as="geometry" />
        </mxCell>
        <mxCell id="k_o9BzKEIPWBxL8dlrQQ-54" value="" style="endArrow=none;html=1;entryX=0.5;entryY=1;entryDx=0;entryDy=0;exitX=0.5;exitY=0;exitDx=0;exitDy=0;rounded=0;" edge="1" parent="WIyWlLk6GJQsqaUBKTNV-1" source="k_o9BzKEIPWBxL8dlrQQ-45" target="k_o9BzKEIPWBxL8dlrQQ-51">
          <mxGeometry width="50" height="50" relative="1" as="geometry">
            <mxPoint x="717.5" y="233" as="sourcePoint" />
            <mxPoint x="767.5" y="183" as="targetPoint" />
            <Array as="points">
              <mxPoint x="785" y="180" />
              <mxPoint x="665" y="180" />
            </Array>
          </mxGeometry>
        </mxCell>
        <mxCell id="k_o9BzKEIPWBxL8dlrQQ-55" value="provides data ▶" style="text;html=1;strokeColor=none;fillColor=none;align=center;verticalAlign=middle;whiteSpace=wrap;rounded=0;rotation=0;" vertex="1" parent="WIyWlLk6GJQsqaUBKTNV-1">
          <mxGeometry x="665" y="160.0000000000001" width="130" height="20" as="geometry" />
        </mxCell>
        <mxCell id="k_o9BzKEIPWBxL8dlrQQ-56" value="" style="endArrow=none;html=1;exitX=0.5;exitY=0;exitDx=0;exitDy=0;entryX=0;entryY=0.5;entryDx=0;entryDy=0;rounded=0;" edge="1" parent="WIyWlLk6GJQsqaUBKTNV-1" source="k_o9BzKEIPWBxL8dlrQQ-34" target="k_o9BzKEIPWBxL8dlrQQ-51">
          <mxGeometry width="50" height="50" relative="1" as="geometry">
            <mxPoint x="420" y="170" as="sourcePoint" />
            <mxPoint x="464" y="120" as="targetPoint" />
            <Array as="points">
              <mxPoint x="420" y="86" />
            </Array>
          </mxGeometry>
        </mxCell>
        <mxCell id="k_o9BzKEIPWBxL8dlrQQ-57" value="conveys-requests ▶" style="text;html=1;strokeColor=none;fillColor=none;align=center;verticalAlign=middle;whiteSpace=wrap;rounded=0;rotation=0;" vertex="1" parent="WIyWlLk6GJQsqaUBKTNV-1">
          <mxGeometry x="450" y="68.00000000000011" width="130" height="20" as="geometry" />
        </mxCell>
        <mxCell id="k_o9BzKEIPWBxL8dlrQQ-61" value="" style="group" vertex="1" connectable="0" parent="WIyWlLk6GJQsqaUBKTNV-1">
          <mxGeometry x="850" y="36.000000000000114" width="150" height="80" as="geometry" />
        </mxCell>
        <mxCell id="k_o9BzKEIPWBxL8dlrQQ-62" value="&amp;lt;&amp;lt;entity&amp;gt;&amp;gt;&lt;br&gt;Return Request" style="rounded=0;whiteSpace=wrap;html=1;" vertex="1" parent="k_o9BzKEIPWBxL8dlrQQ-61">
          <mxGeometry x="10" y="20" width="140" height="60" as="geometry" />
        </mxCell>
        <mxCell id="k_o9BzKEIPWBxL8dlrQQ-63" value="" style="group" vertex="1" connectable="0" parent="k_o9BzKEIPWBxL8dlrQQ-61">
          <mxGeometry width="30" height="40" as="geometry" />
        </mxCell>
        <mxCell id="k_o9BzKEIPWBxL8dlrQQ-64" value="" style="whiteSpace=wrap;html=1;shape=mxgraph.basic.document" vertex="1" parent="k_o9BzKEIPWBxL8dlrQQ-63">
          <mxGeometry width="30" height="40" as="geometry" />
        </mxCell>
        <mxCell id="k_o9BzKEIPWBxL8dlrQQ-65" value="" style="endArrow=none;html=1;" edge="1" parent="k_o9BzKEIPWBxL8dlrQQ-63">
          <mxGeometry width="50" height="50" relative="1" as="geometry">
            <mxPoint x="5" y="9" as="sourcePoint" />
            <mxPoint x="25" y="9" as="targetPoint" />
          </mxGeometry>
        </mxCell>
        <mxCell id="k_o9BzKEIPWBxL8dlrQQ-66" value="" style="endArrow=none;html=1;" edge="1" parent="k_o9BzKEIPWBxL8dlrQQ-63">
          <mxGeometry width="50" height="50" relative="1" as="geometry">
            <mxPoint x="5" y="15" as="sourcePoint" />
            <mxPoint x="25" y="15" as="targetPoint" />
          </mxGeometry>
        </mxCell>
        <mxCell id="k_o9BzKEIPWBxL8dlrQQ-67" value="" style="endArrow=none;html=1;" edge="1" parent="k_o9BzKEIPWBxL8dlrQQ-63">
          <mxGeometry width="50" height="50" relative="1" as="geometry">
            <mxPoint x="5" y="21" as="sourcePoint" />
            <mxPoint x="25" y="21" as="targetPoint" />
          </mxGeometry>
        </mxCell>
        <mxCell id="k_o9BzKEIPWBxL8dlrQQ-68" value="" style="endArrow=none;html=1;" edge="1" parent="k_o9BzKEIPWBxL8dlrQQ-63">
          <mxGeometry width="50" height="50" relative="1" as="geometry">
            <mxPoint x="5" y="27" as="sourcePoint" />
            <mxPoint x="25" y="27" as="targetPoint" />
          </mxGeometry>
        </mxCell>
        <mxCell id="k_o9BzKEIPWBxL8dlrQQ-69" value="" style="endArrow=none;html=1;" edge="1" parent="k_o9BzKEIPWBxL8dlrQQ-63">
          <mxGeometry width="50" height="50" relative="1" as="geometry">
            <mxPoint x="5" y="33" as="sourcePoint" />
            <mxPoint x="25" y="33" as="targetPoint" />
          </mxGeometry>
        </mxCell>
        <mxCell id="k_o9BzKEIPWBxL8dlrQQ-70" value="" style="endArrow=none;html=1;exitX=1;exitY=0.5;exitDx=0;exitDy=0;entryX=0;entryY=0.5;entryDx=0;entryDy=0;" edge="1" parent="WIyWlLk6GJQsqaUBKTNV-1" source="k_o9BzKEIPWBxL8dlrQQ-51" target="k_o9BzKEIPWBxL8dlrQQ-62">
          <mxGeometry width="50" height="50" relative="1" as="geometry">
            <mxPoint x="760" y="103" as="sourcePoint" />
            <mxPoint x="810" y="53" as="targetPoint" />
          </mxGeometry>
        </mxCell>
        <mxCell id="k_o9BzKEIPWBxL8dlrQQ-71" value="generates&amp;nbsp;▶" style="text;html=1;strokeColor=none;fillColor=none;align=center;verticalAlign=middle;whiteSpace=wrap;rounded=0;rotation=0;" vertex="1" parent="WIyWlLk6GJQsqaUBKTNV-1">
          <mxGeometry x="735" y="66.00000000000011" width="130" height="20" as="geometry" />
        </mxCell>
        <mxCell id="k_o9BzKEIPWBxL8dlrQQ-73" value="&amp;nbsp; recordsList" style="rounded=0;whiteSpace=wrap;html=1;align=left;" vertex="1" parent="WIyWlLk6GJQsqaUBKTNV-1">
          <mxGeometry x="860" y="116" width="140" height="24" as="geometry" />
        </mxCell>
      </root>
    </mxGraphModel>
  </diagram>
</mxfile>
